<mxfile host="app.diagrams.net" modified="2023-10-20T01:47:23.961Z" agent="Mozilla/5.0 (X11; Linux x86_64; rv:109.0) Gecko/20100101 Firefox/114.0" version="21.6.6" etag="CRVtUO1NRlCTHv810VQr" type="github">
  <diagram name="第 1 页" id="iQH2VXKzNYhE9dM8JJpn">
    <mxGraphModel>
      <root>
        <mxCell id="0" />
        <mxCell id="1" parent="0" />
      </root>
    </mxGraphModel>
  </diagram>
</mxfile>
